<svg xmlns="http://www.w3.org/2000/svg" xml:space="preserve" width="800" height="800" viewBox="0 0 512 512"><path d="M258.792 8.037C350.5 9.367 429.274 78.89 442.248 169.686 466.03 336.123 256 469.779 256 469.779S67.875 350.063 67.875 196.142c0-104.827 85.739-189.63 190.917-188.105" style="fill:#ffdc64"/><circle cx="256" cy="196.142" r="136.818" style="fill:#ffc850"/><path d="M299.125 102.079c-24.519 0-36.224 5.463-40.739 8.394-1.455.945-3.233.945-4.689 0-4.515-2.931-16.219-8.394-40.738-8.394-26.448 0-56.722 5.841-69.891 8.685-3.929.849-6.701 4.33-6.701 8.349v148.624c0 2.729 2.481 4.772 5.146 4.185 12.194-2.685 43.896-9.024 71.446-9.024 12.393 0 21.498 1.395 28.062 3.154 3.786 1.014 6.428 3.107 6.428 7.027v.024a8.546 8.546 0 0 0 8.551 8.551 8.545 8.545 0 0 0 8.551-8.551c0-3.915 2.638-6.005 6.419-7.024 6.569-1.771 15.701-3.18 28.155-3.18 27.55 0 59.252 6.339 71.446 9.024 2.665.587 5.146-1.456 5.146-4.185V119.113c0-4.02-2.772-7.501-6.701-8.349-13.17-2.843-43.444-8.685-69.891-8.685" style="fill:#fff"/><path d="M377.624 104.496c-1.738-.426-42.987-10.433-78.5-10.433-23.354 0-36.379 4.67-43.083 8.435-6.704-3.765-19.729-8.435-43.083-8.435-35.514 0-76.762 10.007-78.5 10.433a8.02 8.02 0 0 0-6.109 7.787v160.606c0 1.68.436 3.357 1.393 4.74a8.03 8.03 0 0 0 8.532 3.261c.407-.099 41.086-9.973 74.684-9.973 17.935 0 28.089 3.093 33.176 5.405a3.18 3.18 0 0 1 1.848 2.905v2.092c0 4.39 3.382 8.218 7.77 8.349a8.017 8.017 0 0 0 8.264-8.014v-2.39c0-1.242.71-2.384 1.839-2.901 5.057-2.316 15.226-5.447 33.269-5.447 33.546 0 74.277 9.873 74.685 9.974a8.03 8.03 0 0 0 8.534-3.268c.955-1.383 1.39-3.06 1.39-4.742V112.284a8.02 8.02 0 0 0-6.109-7.788m-9.925 158.605c-14.677-3.069-43.102-8.218-68.575-8.218-23.354 0-36.379 4.67-43.083 8.435-6.704-3.764-19.729-8.435-43.083-8.435-25.474 0-53.898 5.149-68.575 8.218V118.686c12.657-2.74 42.714-8.59 68.575-8.59 26.758 0 36.211 6.888 37.333 7.791 1.505 1.817 3.374 2.869 5.749 2.869s4.244-1.052 5.749-2.869c1.122-.903 10.577-7.791 37.334-7.791 25.826 0 55.91 5.852 68.575 8.591z"/><path d="M271.258 139.669a8.017 8.017 0 0 0 3.687 15.604c6.799-1.607 14.934-2.421 24.179-2.421 11.747 0 25.605 1.195 41.189 3.551q.61.091 1.208.091a8.02 8.02 0 0 0 7.916-6.82 8.016 8.016 0 0 0-6.728-9.125c-16.374-2.476-31.04-3.73-43.585-3.73-10.484-.001-19.861.958-27.866 2.85M342.71 208.958c-16.374-2.476-31.04-3.73-43.585-3.73-10.485 0-19.861.959-27.866 2.851a8.016 8.016 0 0 0-5.958 9.645 8.016 8.016 0 0 0 9.645 5.959c6.799-1.607 14.934-2.421 24.179-2.421 11.747 0 25.605 1.195 41.189 3.551q.61.091 1.208.091a8.02 8.02 0 0 0 7.916-6.82 8.02 8.02 0 0 0-6.728-9.126M273.095 189.694c.61 0 1.23-.069 1.85-.217a81 81 0 0 1 7.775-1.414 8.017 8.017 0 0 0-2.137-15.891 97 97 0 0 0-9.326 1.702 8.017 8.017 0 0 0 1.838 15.82M340.313 190.607q.61.091 1.208.091a8.02 8.02 0 0 0 7.916-6.82 8.016 8.016 0 0 0-6.728-9.125c-9.275-1.402-18.106-2.423-26.249-3.036-4.422-.325-8.263 2.979-8.595 7.394a8.016 8.016 0 0 0 7.394 8.595c7.746.583 16.174 1.559 25.054 2.901M170.479 156.493q.599 0 1.208-.091c15.584-2.357 29.443-3.551 41.189-3.551 9.245 0 17.38.814 24.179 2.421a8.017 8.017 0 0 0 9.645-5.959 8.015 8.015 0 0 0-5.958-9.645c-8.006-1.892-17.381-2.851-27.866-2.851-12.546 0-27.211 1.255-43.585 3.73a8.016 8.016 0 0 0-6.728 9.125 8.016 8.016 0 0 0 7.916 6.821M240.743 208.078c-8.006-1.892-17.381-2.851-27.866-2.851-12.546 0-27.211 1.255-43.585 3.73a8.019 8.019 0 0 0 2.396 15.854c15.584-2.357 29.443-3.551 41.189-3.551 9.245 0 17.38.814 24.179 2.421a8.017 8.017 0 0 0 3.687-15.603M240.742 173.874a97 97 0 0 0-9.329-1.702 8.014 8.014 0 0 0-9.013 6.877 8.016 8.016 0 0 0 6.877 9.013c2.751.37 5.368.847 7.778 1.415q.932.218 1.849.217a8.02 8.02 0 0 0 7.795-6.175 8.015 8.015 0 0 0-5.957-9.645M195.54 171.718c-8.144.612-16.975 1.633-26.25 3.036a8.019 8.019 0 0 0 2.396 15.854c8.88-1.343 17.31-2.318 25.054-2.901a8.017 8.017 0 0 0-1.2-15.989"/><path d="M256 0C147.847 0 59.858 87.989 59.858 196.142c0 36.446 10.21 73.954 30.347 111.481 15.947 29.718 38.132 59.527 65.939 88.598 47.16 49.303 93.598 79.077 95.553 80.32a8 8 0 0 0 8.606 0c1.954-1.243 48.392-31.017 95.553-80.32 27.807-29.072 49.992-58.88 65.939-88.598 20.137-37.528 30.347-75.035 30.347-111.481C452.142 87.989 364.153 0 256 0m151.757 299.874c-15.221 28.41-36.498 57.012-63.243 85.01-37.73 39.499-75.929 66.715-88.513 75.267-12.584-8.552-50.783-35.768-88.513-75.267-26.745-27.999-48.023-56.601-63.243-85.01-18.815-35.114-28.354-70.015-28.354-103.732C75.891 96.83 156.688 16.033 256 16.033S436.109 96.83 436.109 196.142c0 33.717-9.539 68.618-28.352 103.732M307.307 495.967H204.693a8.017 8.017 0 0 0 0 16.034h102.614a8.017 8.017 0 0 0 0-16.034"/></svg>