<svg xmlns="http://www.w3.org/2000/svg" width="100" height="100" fill="none" viewBox="0 0 400 400"><path stroke="#000" stroke-linecap="round" stroke-linejoin="round" stroke-opacity=".9" stroke-width="16" d="M287.432 300.302c19.347 84.726 5.539 60.297-36.689 26.487M94.828 70.377c18.504 15.592 81.849-29.773 91.44-27.277 20.385 5.3 40.851 13.007 61.57 18.396 21.431 5.576 48.492 5.648 48.159 6.343-1.828 3.81-84.466 26.464-106.679 31.087-7.76 1.614-82.036-23.562-96.318-27.278"/><path stroke="#000" stroke-linecap="round" stroke-linejoin="round" stroke-opacity=".9" stroke-width="16" d="M158 69c-104.26 5.545-78 10-84 76"/><path stroke="#000" stroke-linecap="round" stroke-linejoin="round" stroke-opacity=".9" stroke-width="16" d="M120.922 84.902c-6.849 25.534-6.849 19.877 0 23.592 7.969 4.324 61.941 31.189 72.435 31.189 16.686 0 55.254-22.575 63.538-32.004M254.527 195.65c-10.701 111.759-153.614 73.577-136.464-17.105-6.352-8.909-18.102-20.045.001-20.045"/><path stroke="#000" stroke-linecap="round" stroke-linejoin="round" stroke-opacity=".9" stroke-width="16" d="M202.342 217.653c-11.04 8.51-24.919 12.126-34.349 0M172.991 181.787c.535-4.061.743-8.376.935-12.475M205.545 181.787c1.002-4.212 1.4-8.215 1.4-12.475M292.896 217.653c-20.238 40.298-56.767 71.219-76.503 110.718M307.729 214.535c20.702 4.728 10.821 21.557-5.464 13.392M321 228.569c-18.576 21.251-57.784 135.831-99.923 105.703"/><path stroke="#000" stroke-linecap="round" stroke-linejoin="round" stroke-opacity=".9" stroke-width="14" d="M269.478 298.533c-8.2.765-13.893-.418-18.735-6.028" opacity=".503"/><path stroke="#000" stroke-linecap="round" stroke-linejoin="round" stroke-opacity=".9" stroke-width="16" d="M150.818 269.616c18.04 7.413 15.29 36.123 26.095 46.691 10.163 9.942 44.474-47.897 48.367-49.805 5.777-2.823 20.161 6.989 25.461 8.719"/><path stroke="#000" stroke-linecap="round" stroke-linejoin="round" stroke-opacity=".9" stroke-width="16" d="M152.381 270.673C127.565 277.279 85.176 302.08 79 345.525M261.425 169.128c19.449-1.877 5.562 17.461-4.26 23.263"/></svg>